# This file uses meters as units for non-parametric coordinates.

mtllib SoporteRampa.mtl
g default
v -582.749299 202.149382 179.099078
v -581.219440 200.451500 184.092712
v -578.614783 197.805165 188.138986
v -575.190292 194.469422 190.841823
v -571.281179 190.770797 191.936650
v -567.270095 187.071336 191.316300
v -563.549674 183.733168 189.041495
v -560.484095 181.083056 185.334908
v -558.373441 179.380413 180.559370
v -557.424314 178.791903 175.182341
v -557.729622 179.375134 169.730162
v -559.259481 181.073017 164.736530
v -561.864136 183.719349 160.690259
v -565.288626 187.055090 157.987422
v -569.197737 190.753714 156.892594
v -573.208819 194.453174 157.512945
v -576.929239 197.791341 159.787749
v -579.994818 200.441453 163.494332
v -582.105472 202.144096 168.269870
v -583.054599 202.732606 173.646898
v -407.257431 390.689602 189.440526
v -405.727572 388.991719 194.434159
v -403.122915 386.345385 198.480434
v -399.698423 383.009642 201.183271
v -395.789310 379.311017 202.278097
v -391.778227 375.611555 201.657747
v -388.057805 372.273387 199.382942
v -384.992227 369.623276 195.676356
v -382.881572 367.920633 190.900817
v -381.932446 367.332123 185.523788
v -382.237754 367.915354 180.071609
v -383.767612 369.613236 175.077978
v -386.372268 372.259569 171.031706
v -389.796757 375.595310 168.328869
v -393.705869 379.293934 167.234042
v -397.716951 382.993394 167.854393
v -401.437371 386.331561 170.129197
v -404.502949 388.981672 173.835780
v -406.613604 390.684316 178.611318
v -407.562731 391.272826 183.988345
v -570.239458 190.762256 174.414619
v -394.747590 379.302476 184.756067
vt 0.648603 0.107966
vt 0.626409 0.064408
vt 0.591842 0.029841
vt 0.548284 0.007647
vt 0.500000 -0.000000
vt 0.451716 0.007647
vt 0.408159 0.029841
vt 0.373591 0.064409
vt 0.351397 0.107966
vt 0.343750 0.156250
vt 0.351397 0.204534
vt 0.373591 0.248091
vt 0.408159 0.282659
vt 0.451716 0.304853
vt 0.500000 0.312500
vt 0.548284 0.304853
vt 0.591841 0.282659
vt 0.626409 0.248091
vt 0.648603 0.204534
vt 0.656250 0.156250
vt 0.375000 0.312500
vt 0.387500 0.312500
vt 0.400000 0.312500
vt 0.412500 0.312500
vt 0.425000 0.312500
vt 0.437500 0.312500
vt 0.450000 0.312500
vt 0.462500 0.312500
vt 0.475000 0.312500
vt 0.487500 0.312500
vt 0.500000 0.312500
vt 0.512500 0.312500
vt 0.525000 0.312500
vt 0.537500 0.312500
vt 0.550000 0.312500
vt 0.562500 0.312500
vt 0.575000 0.312500
vt 0.587500 0.312500
vt 0.600000 0.312500
vt 0.612500 0.312500
vt 0.625000 0.312500
vt 0.375000 0.688440
vt 0.387500 0.688440
vt 0.400000 0.688440
vt 0.412500 0.688440
vt 0.425000 0.688440
vt 0.437500 0.688440
vt 0.450000 0.688440
vt 0.462500 0.688440
vt 0.475000 0.688440
vt 0.487500 0.688440
vt 0.500000 0.688440
vt 0.512500 0.688440
vt 0.525000 0.688440
vt 0.537500 0.688440
vt 0.550000 0.688440
vt 0.562500 0.688440
vt 0.575000 0.688440
vt 0.587500 0.688440
vt 0.600000 0.688440
vt 0.612500 0.688440
vt 0.625000 0.688440
vt 0.648603 0.795466
vt 0.626409 0.751908
vt 0.591842 0.717341
vt 0.548284 0.695147
vt 0.500000 0.687500
vt 0.451716 0.695147
vt 0.408159 0.717341
vt 0.373591 0.751909
vt 0.351397 0.795466
vt 0.343750 0.843750
vt 0.351397 0.892034
vt 0.373591 0.935591
vt 0.408159 0.970159
vt 0.451716 0.992353
vt 0.500000 1.000000
vt 0.548284 0.992353
vt 0.591841 0.970159
vt 0.626409 0.935591
vt 0.648603 0.892034
vt 0.656250 0.843750
vt 0.500000 0.150000
vt 0.500000 0.837500
vn -0.712691 0.648729 0.266875
vn -0.625534 0.552000 0.551365
vn -0.625534 0.552000 0.551365
vn -0.712691 0.648729 0.266875
vn -0.477146 0.401237 0.781883
vn -0.477146 0.401237 0.781883
vn -0.282051 0.211199 0.935865
vn -0.282051 0.211199 0.935865
vn -0.059347 0.000486 0.998237
vn -0.059347 0.000486 0.998237
vn 0.169166 -0.210273 0.962896
vn 0.169166 -0.210273 0.962896
vn 0.381120 -0.400450 0.833299
vn 0.381120 -0.400450 0.833299
vn 0.555767 -0.551428 0.622133
vn 0.555767 -0.551428 0.622133
vn 0.676012 -0.648428 0.350069
vn 0.676012 -0.648428 0.350069
vn 0.730084 -0.681956 0.043737
vn 0.730084 -0.681956 0.043737
vn 0.712691 -0.648729 -0.266875
vn 0.712691 -0.648729 -0.266875
vn 0.625534 -0.552000 -0.551365
vn 0.625534 -0.552000 -0.551365
vn 0.477146 -0.401237 -0.781883
vn 0.477146 -0.401237 -0.781883
vn 0.282051 -0.211199 -0.935864
vn 0.282051 -0.211199 -0.935864
vn 0.059347 -0.000487 -0.998237
vn 0.059347 -0.000487 -0.998237
vn -0.169166 0.210273 -0.962896
vn -0.169166 0.210273 -0.962896
vn -0.381120 0.400450 -0.833299
vn -0.381120 0.400450 -0.833299
vn -0.555767 0.551428 -0.622133
vn -0.555767 0.551428 -0.622133
vn -0.676012 0.648428 -0.350069
vn -0.676012 0.648428 -0.350069
vn -0.730084 0.681956 -0.043738
vn -0.730084 0.681956 -0.043738
vn -0.680775 -0.731393 -0.040116
vn -0.680775 -0.731393 -0.040117
vn -0.680775 -0.731393 -0.040117
vn -0.680775 -0.731393 -0.040116
vn -0.680775 -0.731393 -0.040117
vn -0.680775 -0.731393 -0.040117
vn -0.680775 -0.731393 -0.040117
vn -0.680775 -0.731393 -0.040118
vn -0.680775 -0.731393 -0.040118
vn -0.680775 -0.731393 -0.040117
vn -0.680775 -0.731393 -0.040117
vn -0.680775 -0.731393 -0.040117
vn -0.680775 -0.731393 -0.040116
vn -0.680775 -0.731393 -0.040116
vn -0.680775 -0.731393 -0.040117
vn -0.680775 -0.731393 -0.040116
vn -0.680775 -0.731393 -0.040115
vn -0.680775 -0.731393 -0.040117
vn -0.680775 -0.731393 -0.040118
vn -0.680775 -0.731393 -0.040117
vn -0.680775 -0.731393 -0.040117
vn 0.680775 0.731393 0.040117
vn 0.680775 0.731393 0.040117
vn 0.680775 0.731393 0.040117
vn 0.680775 0.731393 0.040117
vn 0.680775 0.731393 0.040117
vn 0.680775 0.731393 0.040117
vn 0.680775 0.731393 0.040117
vn 0.680775 0.731393 0.040116
vn 0.680775 0.731393 0.040116
vn 0.680775 0.731393 0.040117
vn 0.680775 0.731393 0.040117
vn 0.680775 0.731393 0.040117
vn 0.680775 0.731393 0.040117
vn 0.680775 0.731393 0.040116
vn 0.680775 0.731393 0.040116
vn 0.680775 0.731393 0.040117
vn 0.680775 0.731393 0.040118
vn 0.680775 0.731393 0.040116
vn 0.680775 0.731393 0.040116
vn 0.680775 0.731393 0.040117
vn 0.680775 0.731393 0.040117
s 1
g pCylinder9 Pilares
usemtl initialShadingGroup
f 1/21/1 2/22/2 22/43/3 21/42/4
f 2/22/2 3/23/5 23/44/6 22/43/3
f 3/23/5 4/24/7 24/45/8 23/44/6
f 4/24/7 5/25/9 25/46/10 24/45/8
f 5/25/9 6/26/11 26/47/12 25/46/10
f 6/26/11 7/27/13 27/48/14 26/47/12
f 7/27/13 8/28/15 28/49/16 27/48/14
f 8/28/15 9/29/17 29/50/18 28/49/16
f 9/29/17 10/30/19 30/51/20 29/50/18
f 10/30/19 11/31/21 31/52/22 30/51/20
f 11/31/21 12/32/23 32/53/24 31/52/22
f 12/32/23 13/33/25 33/54/26 32/53/24
f 13/33/25 14/34/27 34/55/28 33/54/26
f 14/34/27 15/35/29 35/56/30 34/55/28
f 15/35/29 16/36/31 36/57/32 35/56/30
f 16/36/31 17/37/33 37/58/34 36/57/32
f 17/37/33 18/38/35 38/59/36 37/58/34
f 18/38/35 19/39/37 39/60/38 38/59/36
f 19/39/37 20/40/39 40/61/40 39/60/38
f 20/40/39 1/41/1 21/62/4 40/61/40
s 2
f 2/2/41 1/1/42 41/83/43
f 3/3/44 2/2/41 41/83/43
f 4/4/45 3/3/44 41/83/43
f 5/5/46 4/4/45 41/83/43
f 6/6/47 5/5/46 41/83/43
f 7/7/48 6/6/47 41/83/43
f 8/8/49 7/7/48 41/83/43
f 9/9/50 8/8/49 41/83/43
f 10/10/51 9/9/50 41/83/43
f 11/11/52 10/10/51 41/83/43
f 12/12/53 11/11/52 41/83/43
f 13/13/54 12/12/53 41/83/43
f 14/14/55 13/13/54 41/83/43
f 15/15/56 14/14/55 41/83/43
f 16/16/57 15/15/56 41/83/43
f 17/17/58 16/16/57 41/83/43
f 18/18/59 17/17/58 41/83/43
f 19/19/60 18/18/59 41/83/43
f 20/20/61 19/19/60 41/83/43
f 1/1/42 20/20/61 41/83/43
s 3
f 21/81/62 22/80/63 42/84/64
f 22/80/63 23/79/65 42/84/64
f 23/79/65 24/78/66 42/84/64
f 24/78/66 25/77/67 42/84/64
f 25/77/67 26/76/68 42/84/64
f 26/76/68 27/75/69 42/84/64
f 27/75/69 28/74/70 42/84/64
f 28/74/70 29/73/71 42/84/64
f 29/73/71 30/72/72 42/84/64
f 30/72/72 31/71/73 42/84/64
f 31/71/73 32/70/74 42/84/64
f 32/70/74 33/69/75 42/84/64
f 33/69/75 34/68/76 42/84/64
f 34/68/76 35/67/77 42/84/64
f 35/67/77 36/66/78 42/84/64
f 36/66/78 37/65/79 42/84/64
f 37/65/79 38/64/80 42/84/64
f 38/64/80 39/63/81 42/84/64
f 39/63/81 40/82/82 42/84/64
f 40/82/82 21/81/62 42/84/64
